<?xml version="1.0" encoding="UTF-8"?>
<svg id="Layer_1" data-name="Layer 1" xmlns="http://www.w3.org/2000/svg" viewBox="0 0 359.46 164.65">
  <path d="M308.67,144.84c-8.83,0-17.02,.1-25.2-.05-2.87-.05-5.46-4.15-4.41-7.76,.95-3.27,3.08-6.19,5.16-10.15,3.78,6.78,8.91,9.08,14.94,9.95,4.4,.64,7.37,3.15,9.51,8.01Z"/>
  <path d="M195.44,131.92c-1.81,1.9-3.43,3.16-4.44,4.8-.95,1.54-2.17,3.9-1.6,5.13,.68,1.48,3.11,2.97,4.82,3.01,5.38,.12,9.52,2.56,13.35,5.86,.65,.56,.85,1.64,1.26,2.49-.84,.37-1.68,1.07-2.52,1.05-4.48-.07-8.97-.16-13.42-.59-1.46-.14-2.85-1.27-4.22-2.04-3.13-1.75-6.22-3.56-9.43-5.4,4.68-5.18,5.57-14.54,16.21-14.3h0Z"/>
  <path d="M292.11,160.35s0,0-.01,0c0,0,0,.01,.01,.02v-.02Z"/>
  <path d="M354.49,12.9c-6.52-2.74-13.08-5.46-19.39-8.64-15.59-7.86-35.67-5.03-47.04,10.09-5.96,7.92-13.07,15.08-20.26,21.95-9.46,9.04-21.08,11.98-33.91,9.53-9.54-1.82-19.05-3.85-28.52-6-16-3.62-31.99-6.1-48.53-4.03-29.77,3.72-49.23,23.14-52.07,52.7-.88,9.09-3.9,17.3-10.33,23.9-8.11,8.32-17.56,14.77-28.57,18.64-21.48,7.55-41.71,3.74-61.11-7.05-1.23-.69-2.53-1.26-4.76-2.37,.23,2.59,.13,4.29,.56,5.85,1.47,5.34,5.27,8.97,9.57,12.07,8.46,6.09,18.2,8.42,28.38,9.42,16.14,1.59,31.78-1.63,47.42-4.85,7.02-1.45,14.06-2.8,21.33-4.25-.65-1.32-1.1-2.2-1.52-3.09-3.33-7.04-4.46-14.47-3.9-22.21,.19-2.52,1.08-4.55,3.94-4.43,2.79,.12,3.78,2.02,3.55,4.67-.09,1.11-.13,2.24-.13,3.36,.12,14.39,6.58,24.83,19.71,30.79,3.82,1.73,7.98,2.78,12.08,3.77,5.88,1.41,8.08,3.42,8.83,9.41,.28,2.23,1.39,2.6,3.26,2.51,10.59-.52,21.19-.96,31.77-1.54,.93-.05,1.83-.91,2.74-1.4-.46-.82-.75-1.84-1.42-2.42-3.83-3.35-8.04-5.7-13.39-5.88-1.65-.05-4.09-1.36-4.62-2.71-.54-1.38,.74-3.54,1.41-5.28,.24-.64,1.03-1.06,1.56-1.59,9-9.11,11.24-19.65,6.56-31.58-4.35-11.1-12.05-19.7-20.81-27.46-2.01-1.77-3.3-3.66-1.29-6.04,2.04-2.42,4.39-1.58,6.13,.36,6.06,6.75,12.43,13.29,17.81,20.56,5.55,7.51,8.2,16.39,8.11,26.22,10.92-4.15,21.46-3.5,32.07-.85,7.54,1.88,15.17,2.6,22.98,1.62,7.11-.89,12.5,2.45,15.51,9.17,3.06,6.82,5.81,13.78,9.08,20.49,.84,1.72,3.08,3.74,4.8,3.86,6.44,.45,12.92,.18,20.02,.18-2.16-4.65-5.12-7.18-9.53-7.84-6.19-.92-9.21-5.09-10.7-10.61-1.86-6.88,.78-12.53,5.53-17.29,6.19-6.21,10.73-13.47,13.84-21.56,4.43-11.5,8.39-23.18,12.72-34.72,5.1-13.58,13.96-23.67,27.52-29.45,5.61-2.39,11.22-4.92,16.4-8.09,3.59-2.2,6.91-5.24,9.54-8.55,3.56-4.49,2.37-7.11-2.93-9.34Zm-36.53-2.69c-.77,1.13-3.04,1.91-4.52,1.73-3.19-.39-3.17-.68-4.92,2.02,1.66,.82,3.21,1.78,4.89,2.34,2.19,.73,3.64,1.94,3.42,4.01-.03,.3-.09,.62-.2,.95-.91,2.92-3.25,3.13-5.75,2.1-1.93-.8-3.95-1.57-5.65-2.75-2.05-1.43-3.35-3.17-3.88-5.04-.69-2.42-.12-5.07,1.74-7.59,3.34-4.52,9.88-5.73,13.81-2.21,.74,.67,1.31,2.33,1.29,3.49,0,.39-.07,.73-.23,.95Z"/>
</svg>