<?xml version="1.0" encoding="UTF-8"?>
<svg id="Layer_1" data-name="Layer 1" xmlns="http://www.w3.org/2000/svg" viewBox="0 0 357.62 196.66">
  <path d="M357.53,190.2h-3.61c-21.31,0-42.63-.15-63.94,.06-12.18,.12-20.49-5.87-26.59-15.69-.67-1.08-.66-3.06-.16-4.29,1.45-3.52,3.33-6.86,5.27-10.73,4.27,6.62,9.19,12.18,16.28,14.73,5.68,2.04,11.73,3.14,17.69,4.33,17.21,3.42,34.46,6.66,51.69,9.99,1.17,.23,2.3,.6,3.45,.9-.03,.24-.06,.47-.09,.71Z"/>
  <path d="M254.38,60.78c-8.1-14.44-19.71-25.18-35.98-29.71-26.07-7.26-49.62-1.36-70.67,15.02-8.2,6.38-16.96,10.61-27.38,11.75-16.32,1.77-27.86-3.74-29.37-22.75-.35-4.42-1.56-8.85-2.87-13.12C82.07,2.35,65.64-3.36,48.79,1.8,27.88,8.21,13.91,24.3,.23,40.3c-.51,.6-.11,3.05,.54,3.41,7.05,3.88,13.92,8.19,22.67,7.35,2.7-.26,6.26,.71,8.24,2.46,3.57,3.15,6.79,7,9.2,11.11,5.41,9.24,8.36,19.47,9.75,30.04,1.03,7.81,3.63,14.82,8.94,20.56,4.05,4.37,8.14,9.06,13.12,12.13,6.8,4.2,10.45,9.99,12.57,17.24,.07,.24,.2,.46,.28,.69,4.42,12.5,8.36,25.09,8,38.58-.15,5.68-.67,6.15-6.37,7.01-4.61,.7-9.04,1.87-13.1,5.7,9.89,0,18.99,.01,28.1,0,7.85-.01,11.14-3.41,10.82-11.3-.49-12.22-.99-24.44-1.62-36.65-.16-3.03,.7-5.14,3.24-6.98,20.04-14.53,41.87-18.36,65.55-11.18,2.27,.69,3.47,.4,4.93-1.53,2.47-3.27,4.99-6.74,8.21-9.17,7.12-5.38,14.63-10.26,22.11-15.16,2.32-1.52,4.68-.78,6.03,1.72,1.4,2.6,.24,4.55-2.08,5.95-.85,.51-1.78,.91-2.65,1.39-8.9,4.92-17.26,10.53-23.56,18.72-6.81,8.86-8.54,18.59-3.85,28.8,2.42,5.26,5.92,10.06,9.2,14.88,2.87,4.21,2.2,6.63-2.56,8.57-3.9,1.59-7.86,3.21-11.43,5.4-1.98,1.22-3.21,3.64-4.78,5.52,.35,.37,.7,.74,1.05,1.11,17.33,0,34.66,.03,52-.08,1,0,2.31-.92,2.95-1.8,5.16-7.03,10.6-13.9,15.2-21.29,9.63-15.51,16.36-32.18,18.42-50.51,2.52-22.54-4.15-42.94-14.96-62.2ZM60.15,27.63c-2.16,1.91-4.96,3.09-8.05,4.89-1.48-1.52-3.3-2.59-3.71-4.05-.36-1.3,.41-3.56,1.47-4.46,1.64-1.4,3.89-2.44,6.01-2.78,1.38-.22,3.61,.66,4.35,1.78,.74,1.12,.76,3.9-.07,4.63Z"/>
</svg>